<svg width="701" height="230" viewBox="0 0 701 230" fill="none" xmlns="http://www.w3.org/2000/svg">
    <path
        d="M0 4C0 1.79087 1.79086 0 4 0H697C699.209 0 701 1.79086 701 4V226C701 228.209 699.209 230 697 230H4C1.79086 230 0 228.209 0 226V4Z"
        fill="black" />
    <path
        d="M551.496 57.5342C538.312 57.0781 525.13 61.1828 514.219 69.8483L521.492 73.953C530.13 67.5679 541.039 64.8314 551.496 65.2875V57.5342Z"
        fill="url(#paint0_linear_401_2)" />
    <path
        d="M590.135 74.8651C581.043 65.2875 569.224 59.3585 556.496 57.9902V65.7436C567.406 67.5679 576.953 72.5847 584.68 80.338L590.135 74.8651Z"
        fill="url(#paint1_linear_401_2)" />
    <path
        d="M606.5 112.263C606.046 100.405 601.5 88.5474 593.772 78.5137L588.316 83.9866C594.681 92.6522 598.318 102.23 598.772 112.263H606.5Z"
        fill="url(#paint2_linear_401_2)" />
    <path
        d="M593.772 151.486C601.5 141.452 606.046 129.595 606.5 117.736H598.772C598.318 127.77 594.681 137.348 588.316 146.013L593.772 151.486Z"
        fill="url(#paint3_linear_401_2)" />
    <path
        d="M556.496 172.01C568.769 170.641 581.043 164.712 590.135 155.135L584.68 149.662C576.953 157.871 566.951 162.888 556.496 164.256V172.01Z"
        fill="url(#paint4_linear_401_2)" />
    <path
        d="M514.219 160.152C525.13 168.817 538.312 172.922 551.496 172.466V164.712C541.039 165.169 530.584 162.432 521.492 156.047L514.219 160.152Z"
        fill="url(#paint5_linear_401_2)" />
    <path
        d="M123.088 98.3257V145.566H107.393V98.3257H94.5V84.989H135.98V98.3257H123.088ZM154.653 84.989V117.929C154.653 119.696 154.706 121.518 154.813 123.392C154.973 125.213 155.374 126.874 156.014 128.373C156.708 129.873 157.776 131.105 159.217 132.069C160.659 132.979 162.688 133.435 165.303 133.435C167.919 133.435 169.921 132.979 171.309 132.069C172.751 131.105 173.818 129.873 174.512 128.373C175.206 126.874 175.607 125.213 175.714 123.392C175.874 121.518 175.954 119.696 175.954 117.929V84.989H191.569V120.098C191.569 129.525 189.407 136.407 185.083 140.746C180.812 145.084 174.219 147.253 165.303 147.253C156.388 147.253 149.768 145.084 145.444 140.746C141.12 136.407 138.958 129.525 138.958 120.098V84.989H154.653ZM215.947 112.064H218.91C222.006 112.064 224.382 111.421 226.037 110.136C227.692 108.85 228.52 107.003 228.52 104.592C228.52 102.182 227.692 100.334 226.037 99.0488C224.382 97.7633 222.006 97.1206 218.91 97.1206H215.947V112.064ZM250.46 145.566H230.922L215.947 122.267V145.566H200.252V84.989H224.676C228.039 84.989 230.975 85.4978 233.484 86.5155C235.993 87.4796 238.049 88.8187 239.65 90.5326C241.305 92.2465 242.533 94.2283 243.334 96.4778C244.188 98.7274 244.615 101.138 244.615 103.709C244.615 108.315 243.494 112.064 241.252 114.956C239.063 117.795 235.807 119.723 231.482 120.741L250.46 145.566ZM268.717 133.354H272.16C276.112 133.354 278.941 132.846 280.648 131.828C282.358 130.81 283.211 129.177 283.211 126.927C283.211 124.678 282.358 123.044 280.648 122.026C278.941 121.009 276.112 120.5 272.16 120.5H268.717V133.354ZM268.717 108.77H271.6C276.512 108.77 278.967 106.815 278.967 102.905C278.967 98.9951 276.512 97.0402 271.6 97.0402H268.717V108.77ZM253.021 84.989H276.404C281.957 84.989 286.174 86.3281 289.057 89.0061C291.939 91.6841 293.381 95.5405 293.381 100.575C293.381 103.628 292.82 106.172 291.699 108.208C290.632 110.189 288.976 111.877 286.734 113.269C288.976 113.698 290.872 114.367 292.42 115.278C294.021 116.135 295.303 117.206 296.264 118.491C297.278 119.777 297.999 121.223 298.426 122.83C298.854 124.437 299.066 126.15 299.066 127.972C299.066 130.81 298.56 133.328 297.545 135.524C296.584 137.72 295.196 139.567 293.381 141.067C291.619 142.567 289.457 143.692 286.894 144.442C284.332 145.191 281.449 145.566 278.246 145.566H253.021V84.989ZM317.688 115.278C317.688 117.688 318.14 119.911 319.049 121.946C319.956 123.981 321.183 125.749 322.732 127.249C324.28 128.748 326.068 129.927 328.098 130.784C330.18 131.587 332.368 131.989 334.664 131.989C336.959 131.989 339.121 131.587 341.15 130.784C343.232 129.927 345.047 128.748 346.596 127.249C348.197 125.749 349.451 123.981 350.359 121.946C351.266 119.911 351.721 117.688 351.721 115.278C351.721 112.867 351.266 110.645 350.359 108.609C349.451 106.574 348.197 104.807 346.596 103.307C345.047 101.807 343.232 100.656 341.15 99.8522C339.121 98.9951 336.959 98.5667 334.664 98.5667C332.368 98.5667 330.18 98.9951 328.098 99.8522C326.068 100.656 324.28 101.807 322.732 103.307C321.183 104.807 319.956 106.574 319.049 108.609C318.14 110.645 317.688 112.867 317.688 115.278ZM301.272 115.278C301.272 110.779 302.099 106.601 303.754 102.744C305.408 98.8345 307.704 95.4334 310.641 92.5411C313.576 89.6488 317.073 87.3993 321.131 85.7925C325.241 84.132 329.752 83.3019 334.664 83.3019C339.521 83.3019 344.006 84.132 348.117 85.7925C352.227 87.3993 355.751 89.6488 358.688 92.5411C361.677 95.4334 363.999 98.8345 365.654 102.744C367.308 106.601 368.137 110.779 368.137 115.278C368.137 119.777 367.308 123.981 365.654 127.891C363.999 131.748 361.677 135.122 358.688 138.014C355.751 140.907 352.227 143.183 348.117 144.843C344.006 146.45 339.521 147.253 334.664 147.253C329.752 147.253 325.241 146.45 321.131 144.843C317.073 143.183 313.576 140.907 310.641 138.014C307.704 135.122 305.408 131.748 303.754 127.891C302.099 123.981 301.272 119.777 301.272 115.278ZM389.742 112.064H392.705C395.801 112.064 398.177 111.421 399.832 110.136C401.486 108.85 402.315 107.003 402.315 104.592C402.315 102.182 401.486 100.334 399.832 99.0488C398.177 97.7633 395.801 97.1206 392.705 97.1206H389.742V112.064ZM424.256 145.566H404.717L389.742 122.267V145.566H374.047V84.989H398.471C401.834 84.989 404.769 85.4978 407.28 86.5155C409.788 87.4796 411.844 88.8187 413.446 90.5326C415.099 92.2465 416.328 94.2283 417.129 96.4778C417.982 98.7274 418.41 101.138 418.41 103.709C418.41 108.315 417.289 112.064 415.047 114.956C412.857 117.795 409.602 119.723 405.278 120.741L424.256 145.566ZM461.171 98.3257H442.512V108.449H460.13V121.785H442.512V132.23H461.171V145.566H426.817V84.989H461.171V98.3257ZM484.178 112.787H489.383C495.148 112.787 498.031 110.27 498.031 105.235C498.031 100.2 495.148 97.683 489.383 97.683H484.178V112.787ZM484.178 145.566H468.482V84.989H493.467C500.247 84.989 505.424 86.7566 509.002 90.2916C512.632 93.8266 514.447 98.8077 514.447 105.235C514.447 111.662 512.632 116.643 509.002 120.179C505.424 123.714 500.247 125.481 493.467 125.481H484.178V145.566ZM532.443 115.278C532.443 117.688 532.897 119.911 533.804 121.946C534.712 123.981 535.94 125.749 537.488 127.249C539.036 128.748 540.825 129.927 542.853 130.784C544.935 131.587 547.124 131.989 549.42 131.989C551.716 131.989 553.878 131.587 555.906 130.784C557.988 129.927 559.804 128.748 561.351 127.249C562.953 125.749 564.208 123.981 565.115 121.946C566.022 119.911 566.476 117.688 566.476 115.278C566.476 112.867 566.022 110.645 565.115 108.609C564.208 106.574 562.953 104.807 561.351 103.307C559.804 101.807 557.988 100.656 555.906 99.8522C553.878 98.9951 551.716 98.5667 549.42 98.5667C547.124 98.5667 544.935 98.9951 542.853 99.8522C540.825 100.656 539.036 101.807 537.488 103.307C535.94 104.807 534.712 106.574 533.804 108.609C532.897 110.645 532.443 112.867 532.443 115.278ZM516.027 115.278C516.027 110.779 516.854 106.601 518.51 102.744C520.165 98.8345 522.46 95.4334 525.396 92.5411C528.333 89.6488 531.829 87.3993 535.887 85.7925C539.997 84.132 544.509 83.3019 549.42 83.3019C554.278 83.3019 558.763 84.132 562.873 85.7925C566.983 87.3993 570.506 89.6488 573.443 92.5411C576.432 95.4334 578.754 98.8345 580.41 102.744C582.065 106.601 582.892 110.779 582.892 115.278C582.892 119.777 582.065 123.981 580.41 127.891C578.754 131.748 576.432 135.122 573.443 138.014C570.506 140.907 566.983 143.183 562.873 144.843C558.763 146.45 554.278 147.253 549.42 147.253C544.509 147.253 539.997 146.45 535.887 144.843C531.829 143.183 528.333 140.907 525.396 138.014C522.46 135.122 520.165 131.748 518.51 127.891C516.854 123.981 516.027 119.777 516.027 115.278Z"
        fill="white" />
    <defs>
        <linearGradient id="paint0_linear_401_2" x1="5128.26" y1="57.5" x2="5128.26" y2="11557.5"
            gradientUnits="userSpaceOnUse">
            <stop stop-color="#1E90FF" />
            <stop offset="1" stop-color="#FF1E56" />
        </linearGradient>
        <linearGradient id="paint1_linear_401_2" x1="942.872" y1="8.96417" x2="942.872" y2="11509"
            gradientUnits="userSpaceOnUse">
            <stop stop-color="#1E90FF" />
            <stop offset="1" stop-color="#FF1E56" />
        </linearGradient>
        <linearGradient id="paint2_linear_401_2" x1="-2207.33" y1="-2022.86" x2="-2207.33" y2="9477.14"
            gradientUnits="userSpaceOnUse">
            <stop stop-color="#1E90FF" />
            <stop offset="1" stop-color="#FF1E56" />
        </linearGradient>
        <linearGradient id="paint3_linear_401_2" x1="-2207.33" y1="-5905.91" x2="-2207.33" y2="5594.09"
            gradientUnits="userSpaceOnUse">
            <stop stop-color="#1E90FF" />
            <stop offset="1" stop-color="#FF1E56" />
        </linearGradient>
        <linearGradient id="paint4_linear_401_2" x1="942.873" y1="-9066.53" x2="942.873" y2="2433.47"
            gradientUnits="userSpaceOnUse">
            <stop stop-color="#1E90FF" />
            <stop offset="1" stop-color="#FF1E56" />
        </linearGradient>
        <linearGradient id="paint5_linear_401_2" x1="5128.26" y1="-9698.65" x2="5128.26" y2="1801.34"
            gradientUnits="userSpaceOnUse">
            <stop stop-color="#1E90FF" />
            <stop offset="1" stop-color="#FF1E56" />
        </linearGradient>
    </defs>
</svg>